<svg
  aria-hidden="true"
  style="position: absolute; width: 0; heght: 0"
  xmlns="http://www.w3.org/2000/svg"
  overflov="hidden"
>
  <defs>
    <symbol id="guaranty" viewBox="0 0 55 57">
      <path
        d="M53.6881 0H2.31193C1.52336 0 0.878174 0.645189 0.878174 1.43375C0.878174 2.22232 1.52336 2.86751 2.31193 2.86751H5.40644V54.5304C5.40644 55.0561 5.69319 55.546 6.15916 55.7969C6.62513 56.0478 7.18669 56.0239 7.62876 55.7252L13.8536 51.5793L20.1024 55.7371C20.5803 56.0597 21.2136 56.0597 21.6915 55.7371L27.9164 51.5912L34.1651 55.7491C34.6431 56.0717 35.2763 56.0717 35.7542 55.7491L41.9791 51.6032L48.2279 55.761C48.4668 55.9164 48.7416 56 49.0164 56C49.2434 56 49.4824 55.9403 49.6975 55.8327C50.1634 55.5818 50.4502 55.092 50.4502 54.5662L50.4263 2.90335H53.6881C54.4766 2.90335 55.1218 2.25816 55.1218 1.4696C55.1218 0.681033 54.4766 0 53.6881 0ZM47.5946 51.8541L42.7796 48.652C42.3017 48.3294 41.6684 48.3294 41.1905 48.652L34.9656 52.8099L28.7169 48.652C28.239 48.3294 27.6057 48.3294 27.1278 48.652L20.9029 52.798L14.6541 48.652C14.1762 48.3294 13.543 48.3294 13.0651 48.652L8.27395 51.8421V2.85556H47.5827L47.5946 51.8541Z"
      />
      <path
        d="M14.8692 22.8924H29.8878C30.6763 22.8924 31.3215 22.2472 31.3215 21.4587C31.3215 20.6701 30.6763 20.0249 29.8878 20.0249H14.8692C14.0807 20.0249 13.4355 20.6701 13.4355 21.4587C13.4355 22.2472 14.0687 22.8924 14.8692 22.8924Z"
      />
      <path
        d="M14.8692 27.8748H26.1242C26.9128 27.8748 27.558 27.2296 27.558 26.4411C27.558 25.6525 26.9128 25.0073 26.1242 25.0073H14.8692C14.0807 25.0073 13.4355 25.6525 13.4355 26.4411C13.4355 27.2296 14.0687 27.8748 14.8692 27.8748Z"
      />
      <path
        d="M37.3911 22.8924H41.1427C41.9313 22.8924 42.5765 22.2472 42.5765 21.4587C42.5765 20.6701 41.9313 20.0249 41.1427 20.0249H37.3911C36.6025 20.0249 35.9573 20.6701 35.9573 21.4587C35.9573 22.2472 36.5906 22.8924 37.3911 22.8924Z"
      />
      <path
        d="M37.3911 27.8748H41.1427C41.9313 27.8748 42.5765 27.2296 42.5765 26.4411C42.5765 25.6525 41.9313 25.0073 41.1427 25.0073H37.3911C36.6025 25.0073 35.9573 25.6525 35.9573 26.4411C35.9573 27.2296 36.5906 27.8748 37.3911 27.8748Z"
      />
      <path
        d="M14.8692 11.3865H29.8878C30.6763 11.3865 31.3215 10.7414 31.3215 9.9528C31.3215 9.16423 30.6763 8.51904 29.8878 8.51904H14.8692C14.0807 8.51904 13.4355 9.16423 13.4355 9.9528C13.4355 10.7414 14.0687 11.3865 14.8692 11.3865Z"
      />
      <path
        d="M14.8692 16.3568H26.1242C26.9128 16.3568 27.558 15.7116 27.558 14.923C27.558 14.1344 26.9128 13.4893 26.1242 13.4893H14.8692C14.0807 13.4893 13.4355 14.1344 13.4355 14.923C13.4355 15.7116 14.0687 16.3568 14.8692 16.3568Z"
      />
      <path
        d="M37.3911 11.3865H41.1427C41.9313 11.3865 42.5765 10.7414 42.5765 9.9528C42.5765 9.16423 41.9313 8.51904 41.1427 8.51904H37.3911C36.6025 8.51904 35.9573 9.16423 35.9573 9.9528C35.9573 10.7414 36.5906 11.3865 37.3911 11.3865Z"
      />
      <path
        d="M37.3911 16.3568H41.1427C41.9313 16.3568 42.5765 15.7116 42.5765 14.923C42.5765 14.1344 41.9313 13.4893 41.1427 13.4893H37.3911C36.6025 13.4893 35.9573 14.1344 35.9573 14.923C35.9573 15.7116 36.5906 16.3568 37.3911 16.3568Z"
      />
      <path
        d="M14.8692 34.5413H29.8878C30.6763 34.5413 31.3215 33.8961 31.3215 33.1076C31.3215 32.319 30.6763 31.6738 29.8878 31.6738H14.8692C14.0807 31.6738 13.4355 32.319 13.4355 33.1076C13.4355 33.8961 14.0687 34.5413 14.8692 34.5413Z"
      />
      <path
        d="M14.8692 39.5116H26.1242C26.9128 39.5116 27.558 38.8664 27.558 38.0778C27.558 37.2892 26.9128 36.644 26.1242 36.644H14.8692C14.0807 36.644 13.4355 37.2892 13.4355 38.0778C13.4355 38.8664 14.0687 39.5116 14.8692 39.5116Z"
      />
      <path
        d="M37.3911 34.5413H41.1427C41.9313 34.5413 42.5765 33.8961 42.5765 33.1076C42.5765 32.319 41.9313 31.6738 41.1427 31.6738H37.3911C36.6025 31.6738 35.9573 32.319 35.9573 33.1076C35.9573 33.8961 36.5906 34.5413 37.3911 34.5413Z"
      />
      <path
        d="M37.3911 39.5116H41.1427C41.9313 39.5116 42.5765 38.8664 42.5765 38.0778C42.5765 37.2892 41.9313 36.644 41.1427 36.644H37.3911C36.6025 36.644 35.9573 37.2892 35.9573 38.0778C35.9573 38.8664 36.5906 39.5116 37.3911 39.5116Z"
      />
    </symbol>
    <symbol id="quality" viewBox="0 0 56 57">
      <path
        d="M54.2851 23.6511H50.9474C50.3288 23.6511 49.7836 23.9689 49.4649 24.4492C46.9134 24.1826 46.5733 23.7737 46.2977 23.4404C45.9226 22.9871 45.4778 22.6026 44.9754 22.2975L37.3059 17.6389C35.7439 14.0107 33.1312 11.7424 31.1924 10.4709C30.4375 9.97577 29.9867 9.13708 29.9867 8.22748C29.9867 7.69086 30.1448 7.17218 30.4439 6.72699L32.3511 3.88837C32.7313 3.32312 32.8625 2.64465 32.7211 1.97815C32.5797 1.31165 32.184 0.745117 31.6073 0.382385C31.2086 0.132446 30.7494 0 30.2794 0H21.2175C20.7471 0 20.2878 0.132446 19.8896 0.382385C19.3128 0.74469 18.9172 1.31122 18.7758 1.97815C18.6344 2.64465 18.7655 3.32312 19.1458 3.88837L21.053 6.72699C21.3521 7.17218 21.5102 7.69086 21.5102 8.22748C21.5102 9.13708 21.0594 9.97577 20.3045 10.4709C17.4312 12.3551 11.0106 17.9084 13.4382 28.7618C14.7921 34.8154 15.838 39.0819 16.4669 41.1348H2.94076C1.82522 41.1348 0.849813 41.9278 0.622091 43.0198L0.159811 45.239C0.0136925 45.9401 0.188863 46.6608 0.64089 47.2167C1.09249 47.7721 1.76241 48.0908 2.47848 48.0908H49.0184C49.7349 48.0908 50.4044 47.7721 50.8564 47.2167C51.308 46.6608 51.4832 45.9401 51.3371 45.239L50.8748 43.0198C50.6471 41.9278 49.6717 41.1348 48.5561 41.1348H35.0299C35.2179 40.5209 35.4448 39.704 35.7075 38.6923H36.5979C39.2105 38.6923 41.7996 38.3022 44.2956 37.5327L49.3939 36.8901C49.6986 37.4344 50.2801 37.804 50.9474 37.804H54.2851C55.2656 37.804 56.0637 37.0063 56.0637 36.0254V25.4301C56.0637 24.4492 55.2656 23.6511 54.2851 23.6511ZM20.3809 2.31866C20.4292 2.09009 20.5647 1.89612 20.7625 1.77179C20.8992 1.68591 21.0564 1.64062 21.2175 1.64062H30.2794C30.4405 1.64062 30.5981 1.68591 30.7344 1.77179C30.9322 1.89612 31.0676 2.09009 31.1164 2.31866C31.1646 2.54681 31.1193 2.77966 30.9895 2.97321L30.0457 4.37799H21.4512L20.5074 2.97321C20.3771 2.77966 20.3322 2.54681 20.3809 2.31866ZM21.2038 11.8428C22.4232 11.0435 23.1512 9.69165 23.1512 8.22748C23.1512 7.44519 22.9401 6.68726 22.5428 6.01862H28.9541C28.5567 6.68726 28.3461 7.44519 28.3461 8.22748C28.3461 9.69165 29.0737 11.0435 30.2931 11.8428C30.7955 12.1722 31.3479 12.5756 31.9136 13.0605H19.588C20.1622 12.5674 20.7159 12.1628 21.2038 11.8428ZM49.2688 43.3548L49.731 45.5739C49.7926 45.8687 49.6648 46.0811 49.5832 46.1815C49.5016 46.2819 49.3196 46.4502 49.0184 46.4502H2.47848C2.17727 46.4502 1.99526 46.2819 1.91366 46.1815C1.83205 46.0811 1.70431 45.8687 1.76583 45.5739L2.22811 43.3548C2.29818 43.019 2.5981 42.7755 2.94076 42.7755H48.5557C48.8988 42.7755 49.1983 43.019 49.2688 43.3548ZM33.3081 41.1348H18.1887C17.8508 40.1278 16.9929 37.1362 15.0391 28.4033C14.2154 24.7209 14.4123 21.3871 15.6206 18.4698H18.6425C19.0958 18.4698 19.4628 18.1028 19.4628 17.6495C19.4628 17.1962 19.0958 16.8292 18.6425 16.8292H16.434C16.8972 16.0311 17.4124 15.324 17.9469 14.7011H33.5559C34.0917 15.3257 34.6057 16.0333 35.0662 16.8292H21.928C21.4747 16.8292 21.1077 17.1962 21.1077 17.6495C21.1077 18.1028 21.4747 18.4698 21.928 18.4698H32.7989C32.5899 18.9804 32.5472 19.5418 32.6809 20.0878C32.8488 20.7701 33.2722 21.3469 33.8721 21.7101L35.2824 22.5667H26.165C24.7171 22.5667 23.543 23.6805 23.4926 25.1024C23.4789 25.481 23.5447 25.8488 23.6823 26.188H22.841C22.1203 26.188 21.4482 26.4734 20.9475 26.9921C20.4476 27.5104 20.1857 28.1931 20.2118 28.9143C20.2515 30.041 20.997 30.9741 22.0254 31.3133C21.8626 31.6551 21.7716 32.037 21.7716 32.4404C21.7716 33.8909 22.9521 35.0714 24.4026 35.0714H25.6455C25.5207 35.3773 25.4519 35.7118 25.4519 36.0617C25.4519 37.5126 26.6324 38.6927 28.0829 38.6927H34.0118C33.667 39.9966 33.4453 40.7277 33.3081 41.1348ZM44.0192 35.9139C43.9709 35.9199 43.9239 35.9301 43.8778 35.9442C41.5185 36.6791 39.0691 37.0516 36.5979 37.0516H28.0829C27.5369 37.0516 27.0926 36.6073 27.0926 36.0613C27.0926 35.5153 27.5369 35.0709 28.0829 35.0709H33.4598C33.9127 35.0709 34.2801 34.7035 34.2801 34.2506C34.2801 33.7973 33.9127 33.4303 33.4598 33.4303H24.4026C23.8566 33.4303 23.4123 32.986 23.4123 32.4399C23.4123 31.8939 23.8566 31.4496 24.4026 31.4496H33.4598C33.9127 31.4496 34.2801 31.0826 34.2801 30.6293C34.2801 30.176 33.9127 29.809 33.4598 29.809H22.8842C22.333 29.809 21.8699 29.3813 21.8511 28.8553C21.8417 28.5836 21.94 28.326 22.128 28.1307C22.3168 27.9359 22.5697 27.8282 22.841 27.8282H33.4598C33.9127 27.8282 34.2801 27.4608 34.2801 27.0079C34.2801 26.5546 33.9127 26.1876 33.4598 26.1876H26.1218C25.8505 26.1876 25.5972 26.08 25.4088 25.8847C25.2208 25.6899 25.1225 25.4323 25.1319 25.1601C25.1507 24.6346 25.6143 24.2069 26.165 24.2069H37.4721C37.9382 24.2069 38.336 23.9053 38.462 23.4562C38.5876 23.0072 38.4043 22.5428 38.0057 22.301L34.7232 20.307C34.4967 20.1699 34.3378 19.9532 34.2746 19.696C34.2113 19.4393 34.2519 19.1731 34.3891 18.9471C34.6719 18.4797 35.2824 18.3301 35.7486 18.6121L44.1239 23.6993C44.4695 23.9091 44.7754 24.174 45.0335 24.4859C45.7042 25.2964 46.5656 25.7826 49.1684 26.0671V35.264L44.0192 35.9139ZM54.4231 36.0254C54.4231 36.1014 54.3611 36.1634 54.2851 36.1634H50.9474C50.8714 36.1634 50.809 36.1014 50.809 36.0254V25.4297C50.809 25.3536 50.8709 25.2917 50.9474 25.2917H54.2851C54.3611 25.2917 54.4231 25.3536 54.4231 25.4297V36.0254Z"
      />
      <path
        d="M39.3344 53.3537L35.0619 49.9165C34.709 49.6324 34.1924 49.6888 33.9088 50.0417C33.6246 50.3946 33.6806 50.9111 34.0335 51.1948L37.9676 54.3594H13.5291L17.4713 51.1884C17.8242 50.9047 17.8802 50.3882 17.5961 50.0353C17.3124 49.6819 16.7958 49.6264 16.4429 49.9101L12.1624 53.3533C11.6638 53.7544 11.4792 54.4034 11.6915 55.0067C11.9039 55.61 12.455 56 13.0946 56H38.4021C39.0417 56 39.5924 55.6104 39.8052 55.0067C40.0175 54.4034 39.833 53.7544 39.3344 53.3537Z"
      />
    </symbol>
    <symbol id="price" viewBox="0 0 54 57">
      <path
        d="M26.973 22.6616C26.7822 22.5941 26.5878 22.524 26.3931 22.4518V18.922C27.037 19.1772 27.4893 19.5348 27.5071 19.549C27.9725 19.9306 28.6594 19.8644 29.0433 19.4003C29.4284 18.9348 29.3632 18.2455 28.8977 17.8603C28.8337 17.8074 27.8175 16.9818 26.3932 16.6337V16.0977C26.3932 15.4936 25.9034 15.0039 25.2995 15.0039C24.6955 15.0039 24.2057 15.4936 24.2057 16.0977V16.5831C24.0899 16.608 23.9736 16.6361 23.8565 16.6713C22.5991 17.0501 21.6914 18.1099 21.4282 19.5064C21.1726 20.8632 21.6147 22.2163 22.5546 22.9534C22.9835 23.2897 23.5062 23.5981 24.2058 23.9187V28.5446C23.7105 28.4751 23.3391 28.307 22.7474 27.9199C22.242 27.5891 21.5642 27.7308 21.2333 28.2364C20.9027 28.7419 21.0442 29.4197 21.5499 29.7505C22.5888 30.4301 23.3214 30.6688 24.2058 30.745V31.4251C24.2058 32.0292 24.6956 32.5189 25.2996 32.5189C25.9035 32.5189 26.3933 32.0292 26.3933 31.4251V30.6403C28.2125 30.1792 29.3785 28.6253 29.6361 27.0933C29.9672 25.1227 28.897 23.3418 26.973 22.6616ZM24.2057 21.4442C24.0973 21.3748 23.9962 21.3042 23.9045 21.2323C23.6093 21.0007 23.475 20.4576 23.5779 19.9116C23.6124 19.7285 23.752 19.1848 24.2057 18.8962V21.4442ZM27.4787 26.7309C27.3787 27.3251 27.0103 27.9497 26.3931 28.3025V24.7821C27.5802 25.2813 27.5506 26.3026 27.4787 26.7309Z"
      />
      <path
        d="M51.7903 23.3685L44.8438 18.7812V1.09375C44.8438 0.489672 44.354 0 43.75 0H17.5C16.896 0 16.4062 0.489672 16.4062 1.09375V5.25H12.25C11.646 5.25 11.1562 5.73967 11.1562 6.34375V18.7813L4.20973 23.3686C3.90327 23.571 3.71875 23.9139 3.71875 24.2812V54.9062C3.71875 55.5103 4.20853 56 4.8125 56H23.0781C23.6821 56 24.1719 55.5103 24.1719 54.9062C24.1719 54.3022 23.6821 53.8125 23.0781 53.8125H7.45314L23.3994 37.8663L27.3973 40.5065C27.58 40.6271 27.79 40.6875 28 40.6875C28.21 40.6875 28.42 40.6271 28.6028 40.5065L32.6007 37.8663L48.547 53.8125H32.9219C32.3179 53.8125 31.8281 54.3022 31.8281 54.9062C31.8281 55.5103 32.3179 56 32.9219 56H51.1875C51.7915 56 52.2812 55.5103 52.2812 54.9062V24.2812C52.2812 23.9139 52.0967 23.571 51.7903 23.3685ZM49.2027 24.2812L44.8438 27.1598V21.4027L49.2027 24.2812ZM18.5938 2.1875H42.6562V28.6044L39.5938 30.6269V6.34375C39.5938 5.73967 39.104 5.25 38.5 5.25H18.5938V2.1875ZM11.1562 21.4027V27.1598L6.79733 24.2812L11.1562 21.4027ZM5.90625 52.2657V26.3143L21.536 36.6359L5.90625 52.2657ZM28 38.283L13.3438 28.6043V7.4375H37.4062V32.0714L28 38.283ZM50.0938 26.3143V52.2657L34.464 36.6358L50.0938 26.3143Z"
      />
      <path
        d="M28 53.8125C27.7123 53.8125 27.4302 53.9295 27.2267 54.133C27.0233 54.3364 26.9062 54.6186 26.9062 54.9063C26.9062 55.1939 27.0232 55.4761 27.2267 55.6795C27.4303 55.883 27.7123 56 28 56C28.2877 56 28.5698 55.883 28.7732 55.6795C28.9766 55.4761 29.0938 55.1939 29.0938 54.9063C29.0938 54.6186 28.9767 54.3364 28.7732 54.133C28.5698 53.9295 28.2877 53.8125 28 53.8125Z"
      />
    </symbol>
    <symbol id="delivery-time" viewBox="0 0 50 55">
      <path
        d="M47.6608 22.4358L46.5856 21.1435L42.8118 9.5965C42.1688 7.64607 40.5243 6.35376 38.6901 6.3418H11.736C9.90182 6.3418 8.25737 7.64607 7.61436 9.5965L3.89327 20.9999L2.3437 22.6273C0.994412 23.9315 0.214355 25.8461 0.214355 27.8563V44.6803C0.224897 47.4324 2.19612 49.658 4.62062 49.658H7.40353C9.82803 49.658 11.7993 47.4324 11.8098 44.6803V42.2392H37.9522V44.6803C37.9628 47.4324 39.934 49.658 42.3585 49.658H45.1414C47.5659 49.658 49.5371 47.4324 49.5477 44.6803V27.4136C49.5371 25.535 48.8625 23.7401 47.6608 22.4358ZM9.59612 10.4102C9.93344 9.39308 10.7873 8.73496 11.736 8.73496H38.7007C39.6494 8.73496 40.5032 9.40504 40.8406 10.4102L44.1295 20.4615H41.6733C41.0936 15.9743 37.4146 12.8751 33.4616 13.5452C30.3098 14.0717 27.8326 16.8837 27.3688 20.4615H6.30723L9.59612 10.4102ZM39.5229 20.4615H29.4981C30.0779 17.3144 32.7975 15.3042 35.5699 15.9623C37.5517 16.4409 39.1012 18.1999 39.5229 20.4615ZM9.70153 44.6803C9.69099 46.1162 8.66849 47.2649 7.40353 47.2649H4.62062C3.35567 47.2649 2.33316 46.1162 2.32262 44.6803V41.5452C2.9551 42.0119 3.78786 42.2392 4.62062 42.2392H9.70153V44.6803ZM47.4394 44.6803C47.4289 46.1162 46.4064 47.2649 45.1414 47.2649H42.3585C41.0936 47.2649 40.071 46.1042 40.0605 44.6803V42.2392H45.1414C45.9742 42.2392 46.8069 42.0119 47.4394 41.5452V44.6803ZM45.1414 39.8461H4.62062C3.36621 39.858 2.33316 38.7213 2.32262 37.2854V27.8563C2.32262 26.5401 2.83914 25.2837 3.72461 24.4341C3.73515 24.4221 3.75624 24.3982 3.76678 24.3862L5.2004 22.8546H45.1203L46.1323 24.0871C46.1428 24.111 46.1745 24.123 46.185 24.1469C46.9756 24.9965 47.4289 26.1811 47.4289 27.4136V37.2854H47.4394C47.4289 38.7093 46.3958 39.858 45.1414 39.8461Z"
      />
      <path
        d="M14.1289 27.6411H6.22295C5.64318 27.6411 5.16882 28.1796 5.16882 28.8377V35.0599C5.16882 35.718 5.64318 36.2565 6.22295 36.2565H14.1289C14.7087 36.2565 15.1831 35.718 15.1831 35.0599V28.8377C15.1831 28.1796 14.7087 27.6411 14.1289 27.6411ZM13.0748 33.8633H7.27709V30.0343H13.0748V33.8633Z"
      />
      <path
        d="M43.5391 27.6411H35.6331C35.0533 27.6411 34.579 28.1796 34.579 28.8377V35.0599C34.579 35.718 35.0533 36.2565 35.6331 36.2565H43.5391C44.1189 36.2565 44.5932 35.718 44.5932 35.0599V28.8377C44.5932 28.1796 44.1189 27.6411 43.5391 27.6411ZM42.485 33.8633H36.6872V30.0343H42.485V33.8633Z"
      />
      <path
        d="M29.9725 32.6665H19.7896C19.2098 32.6665 18.7355 33.205 18.7355 33.8631C18.7355 34.5212 19.2098 35.0597 19.7896 35.0597H29.9725C30.5523 35.0597 31.0267 34.5212 31.0267 33.8631C31.0267 33.205 30.5523 32.6665 29.9725 32.6665Z"
      />
      <path
        d="M29.9725 28.957H19.7896C19.2098 28.957 18.7355 29.4955 18.7355 30.1536C18.7355 30.8117 19.2098 31.3502 19.7896 31.3502H29.9725C30.5523 31.3502 31.0267 30.8117 31.0267 30.1536C31.0267 29.4955 30.5523 28.957 29.9725 28.957Z"
      />
    </symbol>
    <symbol id="cart" viewBox="0 0 25 25">
<path fill-rule="evenodd" clip-rule="evenodd" d="M2.24896 2.29245C1.8582 2.15506 1.43005 2.36047 1.29266 2.75123C1.15527 3.142 1.36068 3.57015 1.75145 3.70754L2.01266 3.79937C2.68026 4.03409 3.11902 4.18964 3.44186 4.34805C3.74509 4.49683 3.87876 4.61726 3.96682 4.74612C4.05708 4.87821 4.12678 5.05963 4.16611 5.42298C4.20726 5.80319 4.20828 6.2984 4.20828 7.03835V9.75999C4.20828 11.2125 4.22191 12.2599 4.35897 13.0601C4.50529 13.9144 4.79742 14.526 5.34366 15.1022C5.93752 15.7285 6.69032 16.0012 7.58656 16.1283C8.44479 16.25 9.53464 16.25 10.8804 16.25L16.2861 16.25C17.0278 16.25 17.6518 16.25 18.1568 16.1882C18.6925 16.1227 19.1811 15.9793 19.6076 15.6318C20.0341 15.2842 20.2731 14.8346 20.4455 14.3232C20.6079 13.841 20.7339 13.2299 20.8836 12.5035L21.3925 10.0341L21.3935 10.0295L21.4039 9.97726C21.5686 9.15237 21.7071 8.45848 21.7416 7.90037C21.7777 7.31417 21.711 6.73616 21.3292 6.23977C21.0942 5.93435 20.7639 5.76144 20.4634 5.65586C20.1569 5.54817 19.8103 5.48587 19.4606 5.44677C18.7735 5.36997 17.9389 5.36998 17.1203 5.36999L5.66809 5.36999C5.6648 5.33324 5.66124 5.29709 5.6574 5.26156C5.60367 4.76518 5.48725 4.31246 5.20527 3.89982C4.92109 3.48396 4.54324 3.21762 4.10261 3.00142C3.69052 2.79922 3.16689 2.61514 2.55036 2.39841L2.24896 2.29245ZM5.70828 6.86999H17.089C17.9454 6.86999 18.6991 6.87099 19.2939 6.93748C19.5895 6.97052 19.8107 7.01642 19.9661 7.07104C20.0931 7.11568 20.1361 7.15213 20.1423 7.1574C20.1422 7.15729 20.1426 7.15762 20.1423 7.1574C20.2037 7.23881 20.2704 7.38651 20.2444 7.80796C20.217 8.25153 20.1005 8.84379 19.9229 9.73372L19.9225 9.73594L19.4237 12.1561C19.2623 12.9389 19.1537 13.4593 19.024 13.8441C18.9009 14.2095 18.7853 14.3669 18.66 14.469C18.5348 14.571 18.3573 14.6525 17.9746 14.6993C17.5714 14.7487 17.0399 14.75 16.2406 14.75H10.9377C9.5209 14.75 8.53783 14.7482 7.79716 14.6432C7.08235 14.5418 6.70473 14.3576 6.43219 14.0701C6.11202 13.7325 5.93933 13.4018 5.83744 12.8069C5.72628 12.1578 5.70828 11.249 5.70828 9.75999L5.70828 6.86999Z"></path> <path fill-rule="evenodd" clip-rule="evenodd" d="M7.5002 21.75C6.25756 21.75 5.2502 20.7426 5.2502 19.5C5.2502 18.2573 6.25756 17.25 7.5002 17.25C8.74285 17.25 9.7502 18.2573 9.7502 19.5C9.7502 20.7426 8.74285 21.75 7.5002 21.75ZM6.7502 19.5C6.7502 19.9142 7.08599 20.25 7.5002 20.25C7.91442 20.25 8.2502 19.9142 8.2502 19.5C8.2502 19.0858 7.91442 18.75 7.5002 18.75C7.08599 18.75 6.7502 19.0858 6.7502 19.5Z" ></path> <path clip-rule="evenodd" d="M16.5002 21.7501C15.2576 21.7501 14.2502 20.7427 14.2502 19.5001C14.2502 18.2574 15.2576 17.2501 16.5002 17.2501C17.7428 17.2501 18.7502 18.2574 18.7502 19.5001C18.7502 20.7427 17.7428 21.7501 16.5002 21.7501ZM15.7502 19.5001C15.7502 19.9143 16.086 20.2501 16.5002 20.2501C16.9144 20.2501 17.2502 19.9143 17.2502 19.5001C17.2502 19.0859 16.9144 18.7501 16.5002 18.7501C16.086 18.7501 15.7502 19.0859 15.7502 19.5001Z" ></path> 
    </symbol>
    <symbol id="menu"  viewBox="0 0 22 22">
 <path fill-rule="evenodd" d="M19 4a1 1 0 01-1 1H2a1 1 0 010-2h16a1 1 0 011 1zm0 6a1 1 0 01-1 1H2a1 1 0 110-2h16a1 1 0 011 1zm-1 7a1 1 0 100-2H2a1 1 0 100 2h16z"></path>
    </symbol>
    <symbol id="close"  viewBox="0 0 25 25">
<path fill-rule="evenodd" clip-rule="evenodd" d="M19.207 6.207a1 1 0 0 0-1.414-1.414L12 10.586 6.207 4.793a1 1 0 0 0-1.414 1.414L10.586 12l-5.793 5.793a1 1 0 1 0 1.414 1.414L12 13.414l5.793 5.793a1 1 0 0 0 1.414-1.414L13.414 12l5.793-5.793z"></path>
    </symbol>
    <symbol id="sun"  viewBox="0 0 25 25">
 <path fill-rule="evenodd" clip-rule="evenodd" d="M12 1.25C12.4142 1.25 12.75 1.58579 12.75 2V4C12.75 4.41421 12.4142 4.75 12 4.75C11.5858 4.75 11.25 4.41421 11.25 4V2C11.25 1.58579 11.5858 1.25 12 1.25ZM3.66865 3.71609C3.94815 3.41039 4.42255 3.38915 4.72825 3.66865L6.95026 5.70024C7.25596 5.97974 7.2772 6.45413 6.9977 6.75983C6.7182 7.06553 6.2438 7.08677 5.9381 6.80727L3.71609 4.77569C3.41039 4.49619 3.38915 4.02179 3.66865 3.71609ZM20.3314 3.71609C20.6109 4.02179 20.5896 4.49619 20.2839 4.77569L18.0619 6.80727C17.7562 7.08677 17.2818 7.06553 17.0023 6.75983C16.7228 6.45413 16.744 5.97974 17.0497 5.70024L19.2718 3.66865C19.5775 3.38915 20.0518 3.41039 20.3314 3.71609ZM12 7.75C9.65279 7.75 7.75 9.65279 7.75 12C7.75 14.3472 9.65279 16.25 12 16.25C14.3472 16.25 16.25 14.3472 16.25 12C16.25 9.65279 14.3472 7.75 12 7.75ZM6.25 12C6.25 8.82436 8.82436 6.25 12 6.25C15.1756 6.25 17.75 8.82436 17.75 12C17.75 15.1756 15.1756 17.75 12 17.75C8.82436 17.75 6.25 15.1756 6.25 12ZM1.25 12C1.25 11.5858 1.58579 11.25 2 11.25H4C4.41421 11.25 4.75 11.5858 4.75 12C4.75 12.4142 4.41421 12.75 4 12.75H2C1.58579 12.75 1.25 12.4142 1.25 12ZM19.25 12C19.25 11.5858 19.5858 11.25 20 11.25H22C22.4142 11.25 22.75 11.5858 22.75 12C22.75 12.4142 22.4142 12.75 22 12.75H20C19.5858 12.75 19.25 12.4142 19.25 12ZM17.0255 17.0252C17.3184 16.7323 17.7933 16.7323 18.0862 17.0252L20.3082 19.2475C20.6011 19.5404 20.601 20.0153 20.3081 20.3082C20.0152 20.6011 19.5403 20.601 19.2475 20.3081L17.0255 18.0858C16.7326 17.7929 16.7326 17.3181 17.0255 17.0252ZM6.97467 17.0253C7.26756 17.3182 7.26756 17.7931 6.97467 18.086L4.75244 20.3082C4.45955 20.6011 3.98468 20.6011 3.69178 20.3082C3.39889 20.0153 3.39889 19.5404 3.69178 19.2476L5.91401 17.0253C6.2069 16.7324 6.68177 16.7324 6.97467 17.0253ZM12 19.25C12.4142 19.25 12.75 19.5858 12.75 20V22C12.75 22.4142 12.4142 22.75 12 22.75C11.5858 22.75 11.25 22.4142 11.25 22V20C11.25 19.5858 11.5858 19.25 12 19.25Z" ></path> 
    </symbol>
     <symbol id="moon"  viewBox="0 0 25 25">
 <path d="M12 22C17.5228 22 22 17.5228 22 12C22 11.5373 21.3065 11.4608 21.0672 11.8568C19.9289 13.7406 17.8615 15 15.5 15C11.9101 15 9 12.0899 9 8.5C9 6.13845 10.2594 4.07105 12.1432 2.93276C12.5392 2.69347 12.4627 2 12 2C6.47715 2 2 6.47715 2 12C2 17.5228 6.47715 22 12 22Z" ></path>
    </symbol>
    <symbol id="bag"  viewBox="0 0 25 25">
<path d="M21.87,19.78l-1.78-16A2,2,0,0,0,18.1,2H5.9a2,2,0,0,0-2,1.78l-1.78,16a2,2,0,0,0,.5,1.55A2,2,0,0,0,4.12,22H19.88a2,2,0,0,0,1.49-.67A2,2,0,0,0,21.87,19.78ZM16,9A4,4,0,0,1,8,9V7a1,1,0,0,1,2,0V9a2,2,0,0,0,4,0V7a1,1,0,0,1,2,0Z" ></path>
    </symbol>
     <symbol id="arrow"  viewBox="0 0 25 25">
<path d="M5 12H19M5 12L11 6M5 12L11 18"  stroke-width="2" stroke-linecap="round" stroke-linejoin="round"></path> 
     </symbol>
     <symbol id="star"  viewBox="0 0 25 25">
<path d="M11.2691 4.41115C11.5006 3.89177 11.6164 3.63208 11.7776 3.55211C11.9176 3.48263 12.082 3.48263 12.222 3.55211C12.3832 3.63208 12.499 3.89177 12.7305 4.41115L14.5745 8.54808C14.643 8.70162 14.6772 8.77839 14.7302 8.83718C14.777 8.8892 14.8343 8.93081 14.8982 8.95929C14.9705 8.99149 15.0541 9.00031 15.2213 9.01795L19.7256 9.49336C20.2911 9.55304 20.5738 9.58288 20.6997 9.71147C20.809 9.82316 20.8598 9.97956 20.837 10.1342C20.8108 10.3122 20.5996 10.5025 20.1772 10.8832L16.8125 13.9154C16.6877 14.0279 16.6252 14.0842 16.5857 14.1527C16.5507 14.2134 16.5288 14.2807 16.5215 14.3503C16.5132 14.429 16.5306 14.5112 16.5655 14.6757L17.5053 19.1064C17.6233 19.6627 17.6823 19.9408 17.5989 20.1002C17.5264 20.2388 17.3934 20.3354 17.2393 20.3615C17.0619 20.3915 16.8156 20.2495 16.323 19.9654L12.3995 17.7024C12.2539 17.6184 12.1811 17.5765 12.1037 17.56C12.0352 17.5455 11.9644 17.5455 11.8959 17.56C11.8185 17.5765 11.7457 17.6184 11.6001 17.7024L7.67662 19.9654C7.18404 20.2495 6.93775 20.3915 6.76034 20.3615C6.60623 20.3354 6.47319 20.2388 6.40075 20.1002C6.31736 19.9408 6.37635 19.6627 6.49434 19.1064L7.4341 14.6757C7.46898 14.5112 7.48642 14.429 7.47814 14.3503C7.47081 14.2807 7.44894 14.2134 7.41394 14.1527C7.37439 14.0842 7.31195 14.0279 7.18708 13.9154L3.82246 10.8832C3.40005 10.5025 3.18884 10.3122 3.16258 10.1342C3.13978 9.97956 3.19059 9.82316 3.29993 9.71147C3.42581 9.58288 3.70856 9.55304 4.27406 9.49336L8.77835 9.01795C8.94553 9.00031 9.02911 8.99149 9.10139 8.95929C9.16534 8.93081 9.2226 8.8892 9.26946 8.83718C9.32241 8.77839 9.35663 8.70162 9.42508 8.54808L11.2691 4.41115Z" stroke-width="2" stroke-linecap="round" stroke-linejoin="round"></path> 
     </symbol>
     <symbol id="half-star"  viewBox="0 0 25 25">
<path d="M8.30595 19.371L12.0008 16.7999L12.0008 4.44753V4.44752C12.0008 4.18078 12.0008 4.0474 11.9674 4.01758C11.9387 3.99199 11.8979 3.98509 11.8624 3.99986C11.821 4.01705 11.7772 4.14304 11.6897 4.395L9.94998 9.39985C9.8841 9.58938 9.85116 9.68414 9.7918 9.75471C9.73936 9.81706 9.67249 9.86564 9.597 9.89625C9.51154 9.93089 9.41123 9.93294 9.21063 9.93702L5.26677 10.0174C4.56191 10.0318 4.20949 10.0389 4.06884 10.1732C3.94711 10.2894 3.892 10.459 3.92218 10.6246C3.95706 10.8158 4.23795 11.0288 4.79975 11.4547L7.94316 13.8379C8.10305 13.9591 8.183 14.0197 8.23177 14.098C8.27486 14.1671 8.3004 14.2457 8.30618 14.327C8.31272 14.419 8.28367 14.515 8.22556 14.707L7.08328 18.4827C6.87913 19.1575 6.77706 19.4949 6.86127 19.6702C6.93416 19.8218 7.07846 19.9267 7.24523 19.9491C7.43793 19.9751 7.72727 19.7737 8.30595 19.371Z"  stroke-width="2" stroke-linecap="round" stroke-linejoin="round"></path>
     </symbol>
     <symbol id="delete"  viewBox="0 0 25 25">
 <path d="M4 7H20" stroke-width="2" stroke-linecap="round" stroke-linejoin="round"></path> <path d="M6 7V18C6 19.6569 7.34315 21 9 21H15C16.6569 21 18 19.6569 18 18V7"  stroke-width="2" stroke-linecap="round" stroke-linejoin="round"></path> <path d="M9 5C9 3.89543 9.89543 3 11 3H13C14.1046 3 15 3.89543 15 5V7H9V5Z"  stroke-width="2" stroke-linecap="round" stroke-linejoin="round"></path>
     </symbol>
     <symbol id="login"  viewBox="0 0 25 25">
 <path d="M13 2C10.2386 2 8 4.23858 8 7C8 7.55228 8.44772 8 9 8C9.55228 8 10 7.55228 10 7C10 5.34315 11.3431 4 13 4H17C18.6569 4 20 5.34315 20 7V17C20 18.6569 18.6569 20 17 20H13C11.3431 20 10 18.6569 10 17C10 16.4477 9.55228 16 9 16C8.44772 16 8 16.4477 8 17C8 19.7614 10.2386 22 13 22H17C19.7614 22 22 19.7614 22 17V7C22 4.23858 19.7614 2 17 2H13Z" ></path> <path d="M3 11C2.44772 11 2 11.4477 2 12C2 12.5523 2.44772 13 3 13H11.2821C11.1931 13.1098 11.1078 13.2163 11.0271 13.318C10.7816 13.6277 10.5738 13.8996 10.427 14.0945C10.3536 14.1921 10.2952 14.2705 10.255 14.3251L10.2084 14.3884L10.1959 14.4055L10.1915 14.4115C10.1914 14.4116 10.191 14.4122 11 15L10.1915 14.4115C9.86687 14.8583 9.96541 15.4844 10.4122 15.809C10.859 16.1336 11.4843 16.0346 11.809 15.5879L11.8118 15.584L11.822 15.57L11.8638 15.5132C11.9007 15.4632 11.9553 15.3897 12.0247 15.2975C12.1637 15.113 12.3612 14.8546 12.5942 14.5606C13.0655 13.9663 13.6623 13.2519 14.2071 12.7071L14.9142 12L14.2071 11.2929C13.6623 10.7481 13.0655 10.0337 12.5942 9.43937C12.3612 9.14542 12.1637 8.88702 12.0247 8.7025C11.9553 8.61033 11.9007 8.53682 11.8638 8.48679L11.822 8.43002L11.8118 8.41602L11.8095 8.41281C11.4848 7.96606 10.859 7.86637 10.4122 8.19098C9.96541 8.51561 9.86636 9.14098 10.191 9.58778L11 9C10.191 9.58778 10.1909 9.58773 10.191 9.58778L10.1925 9.58985L10.1959 9.59454L10.2084 9.61162L10.255 9.67492C10.2952 9.72946 10.3536 9.80795 10.427 9.90549C10.5738 10.1004 10.7816 10.3723 11.0271 10.682C11.1078 10.7837 11.1931 10.8902 11.2821 11H3Z"></path> 
     </symbol>
  </defs>
</svg>
